<svg width="50" height="50" viewBox="0 0 50 50" fill="none" xmlns="http://www.w3.org/2000/svg">
<path d="M40.3137 43.4838C35.4137 47.2714 32.3308 48.2737 26.0651 48.9271C26.3149 46.488 25.8478 45.2152 24.4641 42.7367C16.6193 46.8992 14.0589 46.6272 16.0856 39.1078L14.2712 35.8525L19.5011 33.8246L13.2573 31.9034L10.6423 30.8361L15.2318 23.4183L12.8303 22.8312L18.4337 13.8658C29.4339 16.4825 35.4116 18.5832 45.0099 24.699C40.5507 33.0585 39.2583 37.0531 40.3137 43.4838Z" fill="white"/>
<path d="M48.3186 18.4018L45.0633 25.0726C35.4361 18.2878 29.4966 16.1285 18.2736 14.1859L13.0972 22.6711L15.6587 23.3649L13.8443 26.0865C5.94347 24.4825 2.90684 22.0948 4.3452 11.9446L17.8467 13.9725L23.4501 5.11375C38.0341 4.15063 43.5759 6.93661 48.3186 18.4018Z" fill="#22C55E"/>
<path d="M20.5684 33.7178L30.3343 24.4321L31.9887 30.1956L32.6824 35.799L27.7194 40.602C17.153 48.2866 13.4868 46.2188 16.139 39.2678L14.2712 35.8524L20.5684 33.7178Z" fill="#22C55E"/>
<path d="M44.743 24.7523C32.1299 16.1546 23.1655 14.0377 4.61195 12.3715C2.70505 21.5694 5.29139 23.7739 13.7375 25.7129" stroke="#1F2937" stroke-width="1.54183"/>
<path d="M18.4872 19.6826L18.7024 18.9423L18.3021 18.8259L17.9855 19.0972L18.4872 19.6826ZM22.8615 21.757C23.2704 21.8758 23.6981 21.6407 23.817 21.2319C23.9358 20.8231 23.7007 20.3953 23.2919 20.2764L22.8615 21.757ZM17.1212 21.8689L18.989 20.2679L17.9855 19.0972L16.1177 20.6982L17.1212 21.8689ZM18.2721 20.4228L22.8615 21.757L23.2919 20.2764L18.7024 18.9423L18.2721 20.4228Z" fill="#1F2937"/>
<path d="M32.8268 21.962C33.9927 20.8227 35.4015 20.3472 36.5185 20.8681C38.1841 21.6448 38.5698 24.343 37.3799 26.8947C36.19 29.4464 33.8751 30.8854 32.2095 30.1087C30.6798 29.3953 30.2297 27.0613 31.0882 24.7084" stroke="#1F2937" stroke-width="1.54183"/>
<path d="M32.0421 30.0356L31.9354 35.479L29.6406 37.667" stroke="#1F2937" stroke-width="1.54183"/>
<path d="M23.8237 42.3097C25.4247 44.5511 26.5454 46.152 26.0651 48.8203C32.6825 48.3934 35.3508 47.2727 40.4205 43.377C38.7778 37.4107 40.926 31.5008 48.3186 18.5619C43.6758 6.98153 37.9657 4.15315 23.5569 5.32719L13.0438 22.7244L15.4987 23.4182L11.1227 30.6759L13.8443 31.5298L16.6727 29.9822" stroke="#1F2937" stroke-width="1.54183"/>
<path d="M14.3245 33.0774L17.9534 33.9312C17.9534 33.9312 14.5914 35.3188 14.3779 35.8524C14.1644 36.3861 16.2991 39.0544 16.2991 39.0544C12.6168 46.8991 18.327 48.1265 27.2924 40.0149" stroke="#1F2937" stroke-width="1.54183"/>
</svg>
