<svg width="84" height="84" viewBox="0 0 84 84" fill="none" xmlns="http://www.w3.org/2000/svg">
<path d="M66 72H48L42 52L36 72H18L0 12H84L66 72ZM62.7607 19.7041C63.616 17.6218 61.6086 15.3533 59.5635 16.1709C56.0307 17.584 52.3863 18.8118 49.7832 21.9727C44.3911 28.5548 38.8128 34.951 33.4951 41.5703C31.5986 43.913 29.7761 45.6609 26.541 44.7686C25.4253 44.7686 24.3097 44.6199 23.2686 44.7686C22.4505 44.9544 21.7436 45.623 21 46.0693C21.5578 46.5155 22.1159 46.9991 22.7109 47.4082C23.0084 47.6313 23.3801 47.743 23.752 47.8174C27.4706 48.7842 29.6276 51.2759 30.7432 54.8086C30.9662 55.4778 31.189 56.1101 31.4492 56.7422C31.9698 58.0065 32.6765 57.8204 33.2715 56.8535C33.5689 56.2958 33.7177 55.5892 33.7549 54.9199C33.8292 53.3581 33.8292 51.8333 33.7549 50.2715C33.6806 49.1189 34.0902 48.3384 34.9824 47.5947C42.0108 41.7935 48.8533 35.7686 55.9932 30.1162C59.5258 27.3272 61.1617 23.5714 62.7607 19.7041ZM53.8359 33.835C51.5305 35.7686 49.5226 37.4048 47.5518 39.1152C47.2915 39.3755 47.1424 40.0451 47.291 40.3799C49.4479 45.0655 51.6798 49.751 53.9854 54.3994C54.0973 54.6597 55.2865 54.8459 55.4727 54.623C56.0304 53.9538 56.7734 53.0239 56.6621 52.2803C55.844 46.2559 54.8399 40.2312 53.8359 33.835ZM26.6152 22.2324C26.0203 22.1209 25.2023 22.6046 24.6445 23.0137C23.6033 23.7202 23.4173 24.4634 24.8301 25.1328C29.3668 27.2524 33.8666 29.4468 38.4033 31.5293C38.8124 31.7152 39.7424 31.529 40.0771 31.1943C41.7876 29.335 43.3496 27.3269 45.2461 25.0586C38.7755 24.0545 32.7139 23.0505 26.6152 22.2324Z" fill="#0D475D"/>
</svg>
